<?xml version="1.0" encoding="utf-8"?>
<!-- Generator: Adobe Illustrator 27.9.0, SVG Export Plug-In . SVG Version: 6.00 Build 0)  -->
<svg version="1.1" id="Layer_1" xmlns="http://www.w3.org/2000/svg" xmlns:xlink="http://www.w3.org/1999/xlink" x="0px" y="0px"
	 viewBox="0 0 300 300" style="enable-background:new 0 0 300 300;" xml:space="preserve">
<style type="text/css">
	.st0{fill:#445335;}
</style>
<g>
	<path class="st0" d="M94.3,208H42.7v-49.7h54.2c0,0,19.6-0.3,19.6,25.5C116.4,205.3,102.1,207.8,94.3,208 M42.7,88.1h47.2h7
		c0,0,13.2,0,13.2,19.4s-7.7,22.2-16.5,22.2H42.7V88.1 M121.1,139.9c0,0,28.4-2.1,28.4-35.4S126.3,55,96.9,55H42.7h-1.6H0v186.1
		h41.1h1.6h54.2c0,0,59.1,1.9,59.1-54.9C155.9,186.1,158.5,139.9,121.1,139.9"/>
	<path class="st0" d="M263.8,158.3h-61.1c0,0,4-28.7,32.7-28.7S263.8,158.3,263.8,158.3 M234.7,102.3c-71.5,0-71.5,71.5-71.5,71.5
		s-4.9,71.1,71.5,71.1c0,0,63.7,3.6,63.7-49.5h-32.7c0,0,1.1,20-29.8,20c0,0-32.7,2.2-32.7-32.4h96.4
		C299.5,183.1,310,102.3,234.7,102.3"/>
	<polyline class="st0" points="271.5,66 194.7,66 194.7,88.9 271.5,88.9 271.5,66 	"/>
</g>
</svg>
