<?xml version="1.0" encoding="utf-8"?>
<!-- Generator: Adobe Illustrator 27.9.0, SVG Export Plug-In . SVG Version: 6.00 Build 0)  -->
<svg version="1.1" id="Layer_1" xmlns="http://www.w3.org/2000/svg" xmlns:xlink="http://www.w3.org/1999/xlink" x="0px" y="0px"
	 viewBox="0 0 300 300" style="enable-background:new 0 0 300 300;" xml:space="preserve">
<style type="text/css">
	.st0{fill:#445335;}
	.st1{fill:#F9F1E4;}
</style>
<circle class="st0" cx="150" cy="150" r="150"/>
<g>
	<path class="st1" d="M221.7,123L201,207.8l-22.9,8.5l16.4-72.3L81.6,185.9l-7-18.8l112.9-41.9l-59.4-43.8l22.9-8.5L221.7,123z"/>
</g>
<g>
	<g>
		<path class="st1" d="M89.5,256.3l-1.7-0.9l2.5-4.8c0.9-0.2,1.8-0.2,2.8,0c1,0.2,1.9,0.5,2.8,0.9c1.3,0.7,2.2,1.5,2.9,2.6
			c0.7,1.1,1.1,2.2,1.2,3.5c0.1,1.3-0.2,2.5-0.9,3.7c-0.6,1.2-1.5,2.1-2.6,2.8s-2.3,1-3.6,1s-2.6-0.3-3.8-1c-1-0.5-1.8-1.2-2.4-1.9
			s-1.1-1.6-1.3-2.5l1.7-0.5c0.5,1.5,1.4,2.6,2.8,3.3c0.9,0.5,1.9,0.7,2.9,0.7s1.8-0.3,2.7-0.8s1.4-1.2,1.9-2.1
			c0.5-0.9,0.7-1.8,0.6-2.8s-0.3-1.8-0.9-2.6c-0.5-0.8-1.3-1.5-2.2-1.9c-1.1-0.6-2.2-0.8-3.3-0.7L89.5,256.3z"/>
		<path class="st1" d="M82.6,244.3c0.5,1.2,0.7,2.4,0.6,3.7c-0.2,1.3-0.6,2.4-1.5,3.5c-0.8,1.1-1.8,1.8-3,2.3
			c-1.2,0.5-2.4,0.6-3.7,0.4s-2.5-0.7-3.6-1.6c-1.1-0.9-1.9-1.9-2.4-3.1s-0.7-2.4-0.6-3.7c0.2-1.3,0.6-2.4,1.5-3.5
			c0.8-1.1,1.8-1.9,3-2.3c1.2-0.5,2.4-0.6,3.7-0.4c1.3,0.2,2.5,0.7,3.6,1.6C81.2,242.1,82,243.1,82.6,244.3z M76.4,241.5
			c-0.9-0.1-1.8,0-2.7,0.3s-1.6,0.9-2.2,1.7c-0.6,0.8-1,1.7-1.1,2.6s0,1.8,0.4,2.7c0.4,0.9,1,1.6,1.8,2.2c0.8,0.6,1.7,1,2.6,1.1
			c0.9,0.1,1.9,0,2.7-0.3c0.9-0.4,1.6-0.9,2.2-1.7c0.6-0.8,1-1.7,1.1-2.6s0-1.8-0.4-2.7c-0.4-0.9-1-1.6-1.8-2.3
			S77.3,241.6,76.4,241.5z"/>
		<path class="st1" d="M59.5,242l-1.4-1.4l9.9-9.9l1.4,1.4L59.5,242z"/>
		<path class="st1" d="M44.2,224.2l11.1-8.6l1,1.3l-3.1,13l8.3-6.4l1.2,1.6l-11.1,8.6l-1-1.3l3.1-13l-8.3,6.4L44.2,224.2z"/>
		<path class="st1" d="M40.3,203.9l-0.9-1.7l4.8-2.6c0.8,0.3,1.6,0.8,2.3,1.5s1.3,1.4,1.8,2.3c0.7,1.2,1,2.5,1,3.8s-0.3,2.5-1,3.6
			c-0.7,1.1-1.6,1.9-2.8,2.6c-1.2,0.6-2.4,0.9-3.7,0.9c-1.3-0.1-2.4-0.4-3.5-1.2c-1.1-0.7-2-1.7-2.6-3c-0.5-1-0.8-2-1-2.9
			c-0.1-1,0-1.9,0.3-2.8l1.7,0.5c-0.4,1.5-0.3,2.9,0.5,4.3c0.5,0.9,1.2,1.7,2,2.2c0.8,0.5,1.7,0.8,2.6,0.8c0.9,0,1.9-0.2,2.8-0.7
			c0.9-0.5,1.6-1.1,2.1-1.9c0.5-0.8,0.8-1.7,0.8-2.7c0-1-0.2-1.9-0.7-2.8c-0.6-1.1-1.4-1.9-2.3-2.5L40.3,203.9z"/>
		<path class="st1" d="M27.3,184l1.2,4.6l-1.7,0.5l-3-11.2l1.7-0.5l1.2,4.6l11.8-3.2l0.5,1.9L27.3,184z"/>
		<path class="st1" d="M35.3,166.5c-0.5,1.2-1.2,2.2-2.3,2.9c-1,0.8-2.2,1.2-3.5,1.4c-1.3,0.1-2.6,0-3.7-0.6
			c-1.2-0.5-2.1-1.3-2.8-2.4c-0.7-1.1-1.2-2.3-1.3-3.7c-0.2-1.4,0-2.7,0.5-3.9s1.2-2.2,2.3-2.9c1-0.8,2.2-1.2,3.5-1.4s2.6,0,3.8,0.6
			c1.2,0.5,2.1,1.3,2.8,2.4c0.7,1.1,1.2,2.3,1.3,3.7C35.9,164,35.7,165.3,35.3,166.5z M33,160.1c-0.6-0.8-1.3-1.3-2.1-1.7
			s-1.8-0.5-2.8-0.4c-1,0.1-1.9,0.4-2.7,1c-0.8,0.6-1.3,1.3-1.7,2.1s-0.5,1.8-0.4,2.8c0.1,1,0.4,1.9,1,2.7c0.6,0.8,1.3,1.4,2.1,1.7
			s1.8,0.5,2.8,0.4c1-0.1,1.9-0.4,2.7-1c0.8-0.6,1.3-1.3,1.7-2.2c0.4-0.9,0.5-1.8,0.4-2.8C33.9,161.8,33.5,160.9,33,160.1z"/>
		<path class="st1" d="M35.1,138.5c-0.4,0.9-1,1.6-1.5,2.1l-1.5-0.9c0.5-0.5,1-1.1,1.4-1.9c0.4-0.8,0.7-1.6,0.8-2.5
			c0.1-1.2,0.1-2-0.3-2.7c-0.3-0.6-0.8-1-1.5-1c-0.5-0.1-0.9,0-1.2,0.3c-0.3,0.3-0.6,0.6-0.8,1.1c-0.2,0.4-0.5,1.1-0.8,1.9
			c-0.4,1-0.7,1.8-1.1,2.4c-0.3,0.6-0.8,1.1-1.4,1.5c-0.6,0.4-1.3,0.5-2.2,0.4c-0.7-0.1-1.4-0.4-1.9-0.8s-0.9-1.1-1.2-2
			c-0.3-0.8-0.3-1.8-0.2-3c0.1-0.8,0.3-1.6,0.6-2.4c0.3-0.8,0.7-1.4,1.2-1.9l1.5,0.9c-0.4,0.5-0.8,1.1-1.1,1.8
			c-0.3,0.6-0.5,1.3-0.5,1.9c-0.1,1.1,0,2,0.3,2.6s0.8,1,1.5,1c0.5,0.1,0.9-0.1,1.2-0.3c0.3-0.3,0.6-0.6,0.8-1.1
			c0.2-0.4,0.5-1.1,0.8-1.8c0.4-1,0.7-1.8,1.1-2.4s0.8-1.1,1.4-1.5s1.3-0.5,2.2-0.4c0.7,0.1,1.4,0.4,1.9,0.8c0.6,0.5,1,1.1,1.2,2
			c0.2,0.9,0.3,1.9,0.2,3C35.9,136.6,35.6,137.6,35.1,138.5z"/>
		<path class="st1" d="M38.8,113.6l1.7,0.5l-2.7,9.8l-13.5-3.7l2.6-9.5l1.7,0.5l-2.1,7.6l4.1,1.1l1.9-6.8l1.6,0.4l-1.9,6.8l4.4,1.2
			L38.8,113.6z"/>
		<path class="st1" d="M45.3,97.7l1.6,0.7l-4.1,9.3L30,102.1l4-9l1.6,0.7l-3.2,7.2l3.9,1.7l2.8-6.4l1.6,0.7l-2.8,6.4l4.1,1.8
			L45.3,97.7z"/>
		<path class="st1" d="M46.9,75.3L44,79.2l-1.4-1l6.9-9.3l1.4,1L48,73.7l9.9,7.3l-1.2,1.6L46.9,75.3z"/>
		<path class="st1" d="M63.1,54.4l9.9,9.9l-1.4,1.4l-4.4-4.4L61.4,67l4.4,4.4l-1.4,1.4l-9.9-9.9l1.4-1.4l4.3,4.3l5.7-5.7l-4.3-4.3
			L63.1,54.4z"/>
		<path class="st1" d="M86.1,52l1,1.4l-8.2,6l-8.2-11.3l8-5.8l1,1.4l-6.4,4.6l2.5,3.5l5.7-4.1l1,1.4l-5.7,4.1l2.6,3.7L86.1,52z"/>
		<path class="st1" d="M105.1,30.3c1.3,0.4,2.2,1.3,2.8,2.7c0.6,1.4,0.6,2.7-0.1,3.9c-0.6,1.2-1.8,2.2-3.4,2.8l-3.2,1.3l1.6,3.9
			l-1.8,0.8l-5.4-12.9l5-2.1C102.3,30,103.8,29.9,105.1,30.3z M106,36.3c0.4-0.8,0.4-1.6,0-2.5s-1-1.5-1.8-1.8
			c-0.8-0.2-1.8-0.1-3,0.4l-3.1,1.3l2.4,5.8l3.1-1.3C104.8,37.7,105.6,37,106,36.3z"/>
		<path class="st1" d="M126.6,37.2l-4-3.5c-0.4,0.1-0.6,0.2-0.8,0.2l-3.4,0.8l1,4.1l-1.9,0.5l-3.3-13.6l5.3-1.3
			c1.8-0.4,3.2-0.4,4.5,0.2c1.2,0.6,2,1.6,2.4,3.1c0.3,1,0.2,2-0.1,2.9c-0.3,0.9-0.9,1.6-1.8,2.2l4.3,3.8L126.6,37.2z M124,30.9
			c0.5-0.7,0.7-1.5,0.4-2.5c-0.2-1-0.8-1.7-1.5-2c-0.8-0.4-1.8-0.4-3-0.1l-3.3,0.8l1.5,6.1l3.3-0.8C122.6,32.1,123.5,31.6,124,30.9z
			"/>
		<path class="st1" d="M137.5,34.7c-1.2-0.5-2.1-1.3-2.9-2.4c-0.7-1-1.1-2.2-1.2-3.6c-0.1-1.3,0.1-2.6,0.7-3.7
			c0.6-1.1,1.4-2.1,2.5-2.8c1.1-0.7,2.3-1.1,3.7-1.2c1.4-0.1,2.7,0.1,3.9,0.6c1.2,0.5,2.1,1.3,2.8,2.4s1.1,2.2,1.2,3.6
			c0.1,1.4-0.1,2.6-0.7,3.7c-0.6,1.1-1.4,2-2.5,2.7c-1.1,0.7-2.3,1.1-3.7,1.2C140,35.5,138.7,35.3,137.5,34.7z M144,32.7
			c0.8-0.5,1.4-1.2,1.8-2.1s0.6-1.8,0.5-2.8c-0.1-1-0.4-1.9-0.9-2.7c-0.5-0.8-1.2-1.4-2.1-1.8c-0.9-0.4-1.8-0.6-2.8-0.5
			s-1.9,0.4-2.7,0.9c-0.8,0.5-1.4,1.2-1.8,2.1c-0.4,0.9-0.6,1.8-0.5,2.8c0.1,1,0.4,1.9,0.9,2.7c0.5,0.8,1.2,1.4,2.1,1.8
			c0.9,0.4,1.8,0.6,2.8,0.5C142.3,33.5,143.2,33.2,144,32.7z"/>
		<path class="st1" d="M154.6,34.5c-0.7-0.4-1.2-1-1.6-1.6l1.3-1.3c0.7,1.2,1.6,1.8,2.8,1.9c0.8,0.1,1.4-0.1,1.8-0.6
			c0.4-0.4,0.7-1.1,0.8-2.1l0.7-7.8l-5-0.4l0.1-1.7l7,0.6l-0.8,9.5c-0.1,1.5-0.6,2.7-1.4,3.4c-0.8,0.7-1.9,1-3.4,0.9
			C156,35.2,155.3,34.9,154.6,34.5z"/>
		<path class="st1" d="M179.2,36.7l-0.4,1.7l-10-2l2.8-13.7l9.7,2l-0.4,1.7l-7.7-1.6l-0.9,4.2l6.9,1.4l-0.3,1.7l-6.9-1.4l-0.9,4.4
			L179.2,36.7z"/>
		<path class="st1" d="M187.8,40.4c-0.8-1-1.4-2.1-1.6-3.3c-0.2-1.2-0.1-2.5,0.4-3.8c0.5-1.3,1.2-2.3,2.2-3.1c1-0.8,2.1-1.3,3.4-1.5
			c1.3-0.2,2.6,0,3.9,0.4c1,0.4,1.9,0.9,2.6,1.6c0.7,0.7,1.3,1.4,1.6,2.3l-1.7,0.7c-0.6-1.4-1.6-2.4-3.1-2.9c-1-0.4-1.9-0.5-2.9-0.3
			c-1,0.1-1.8,0.5-2.5,1.1c-0.7,0.6-1.3,1.4-1.6,2.3c-0.4,1-0.4,1.9-0.3,2.8c0.2,0.9,0.6,1.8,1.2,2.5c0.6,0.7,1.4,1.3,2.4,1.6
			c1.5,0.5,2.9,0.5,4.3-0.2l0.8,1.6c-0.8,0.5-1.8,0.7-2.8,0.7c-1,0-2-0.1-3-0.5C189.7,42.1,188.6,41.4,187.8,40.4z"/>
		<path class="st1" d="M210,37.6l-4.2-2.3l0.8-1.5l10.2,5.5l-0.8,1.5l-4.2-2.3l-5.9,10.8l-1.7-0.9L210,37.6z"/>
		<path class="st1" d="M215.7,55.1c-0.6-0.8-1-1.6-1.1-2.4l1.5-0.8c0.1,0.7,0.5,1.4,1,2.2s1.1,1.4,1.8,1.9c0.9,0.7,1.8,1,2.4,1.1
			c0.7,0,1.2-0.2,1.6-0.8c0.3-0.4,0.4-0.8,0.3-1.2c-0.1-0.4-0.3-0.8-0.5-1.2s-0.7-0.9-1.3-1.6c-0.7-0.8-1.2-1.5-1.6-2.1
			c-0.4-0.6-0.6-1.2-0.6-1.9c-0.1-0.7,0.2-1.4,0.7-2.1c0.4-0.6,1-1,1.7-1.3c0.7-0.3,1.4-0.3,2.3-0.1c0.9,0.2,1.8,0.6,2.7,1.3
			c0.7,0.5,1.3,1.1,1.8,1.7s0.9,1.3,1.1,2l-1.5,0.9c-0.3-0.6-0.6-1.2-1-1.8s-0.9-1-1.4-1.4c-0.9-0.7-1.7-1-2.4-1s-1.2,0.3-1.6,0.8
			c-0.3,0.4-0.4,0.8-0.3,1.2c0.1,0.4,0.3,0.9,0.5,1.3c0.3,0.4,0.7,0.9,1.2,1.6c0.7,0.8,1.2,1.5,1.6,2.1c0.4,0.6,0.6,1.2,0.6,1.9
			c0.1,0.7-0.2,1.4-0.7,2.1c-0.4,0.6-1,1-1.7,1.3s-1.5,0.3-2.3,0.1c-0.9-0.2-1.8-0.6-2.7-1.3C217,56.6,216.3,55.9,215.7,55.1z"/>
		<path class="st1" d="M227.2,64.2c0-0.4,0.1-0.7,0.4-1c0.3-0.3,0.6-0.4,1-0.4c0.4,0,0.7,0.1,1,0.4s0.4,0.6,0.4,0.9
			c0,0.4-0.1,0.7-0.4,1c-0.3,0.3-0.6,0.5-1,0.5c-0.4,0-0.7-0.1-0.9-0.3C227.3,64.9,227.2,64.6,227.2,64.2z"/>
	</g>
</g>
</svg>
