<?xml version="1.0" encoding="utf-8"?>
<!-- Generator: Adobe Illustrator 27.9.0, SVG Export Plug-In . SVG Version: 6.00 Build 0)  -->
<svg version="1.1" id="Layer_1" xmlns="http://www.w3.org/2000/svg" xmlns:xlink="http://www.w3.org/1999/xlink" x="0px" y="0px"
	 viewBox="0 0 300 300" style="enable-background:new 0 0 300 300;" xml:space="preserve">
<style type="text/css">
	.st0{fill:#445335;}
	.st1{fill:#F9F1E4;}
</style>
<g>
	<circle class="st0" cx="150" cy="150" r="150"/>
	<g>
		<path class="st1" d="M219.8,181.6l-74.6,45.3L123,216.8l62.7-39.5L76.2,127l8.3-18.2L194.1,159l-11-73l22.2,10.2L219.8,181.6z"/>
	</g>
	<g>
		<g>
			<path class="st1" d="M32.1,182.2l-0.6-1.8l5.2-1.6c0.8,0.5,1.4,1.1,2,1.9c0.6,0.8,1,1.7,1.3,2.6c0.4,1.4,0.5,2.7,0.2,3.9
				c-0.3,1.3-0.8,2.4-1.7,3.3c-0.8,0.9-1.9,1.6-3.2,2s-2.6,0.5-3.8,0.2s-2.3-0.9-3.2-1.8c-0.9-0.9-1.6-2-2-3.4
				c-0.3-1.1-0.5-2.1-0.4-3.1s0.4-1.9,0.9-2.7l1.6,0.8c-0.7,1.4-0.8,2.8-0.3,4.4c0.3,1,0.8,1.9,1.5,2.5s1.5,1.1,2.4,1.3
				c0.9,0.2,1.9,0.2,2.9-0.1s1.8-0.8,2.4-1.5c0.6-0.7,1.1-1.5,1.3-2.5s0.1-1.9-0.2-2.9c-0.4-1.2-1-2.2-1.8-2.9L32.1,182.2z"/>
			<path class="st1" d="M35.6,168.8c-0.5,1.2-1.2,2.2-2.2,3s-2.2,1.3-3.5,1.4c-1.3,0.2-2.6,0-3.8-0.5c-1.2-0.5-2.1-1.3-2.9-2.3
				s-1.2-2.3-1.4-3.7c-0.2-1.4,0-2.7,0.4-3.9s1.2-2.2,2.2-3s2.2-1.2,3.5-1.4s2.6,0,3.8,0.5s2.1,1.3,2.9,2.3s1.2,2.3,1.4,3.6
				C36.2,166.3,36.1,167.6,35.6,168.8z M33.2,162.5c-0.6-0.8-1.3-1.3-2.2-1.7c-0.9-0.4-1.8-0.5-2.8-0.4s-1.9,0.5-2.6,1.1
				s-1.3,1.3-1.7,2.2s-0.5,1.8-0.3,2.8c0.1,1,0.5,1.9,1.1,2.7s1.3,1.3,2.2,1.7s1.8,0.5,2.8,0.4s1.9-0.5,2.6-1.1
				c0.8-0.6,1.3-1.3,1.7-2.2s0.5-1.8,0.3-2.9C34.1,164.1,33.8,163.2,33.2,162.5z"/>
			<path class="st1" d="M20.9,150.9v-2h14v2H20.9z"/>
			<path class="st1" d="M22.8,127.4l13.9,1.8l-0.2,1.6l-11.4,7l10.4,1.3l-0.3,2l-13.9-1.8l0.2-1.6l11.4-7l-10.4-1.3L22.8,127.4z"/>
			<path class="st1" d="M34.3,110.4l0.6-1.8l5.2,1.6c0.3,0.8,0.5,1.7,0.6,2.7c0,1-0.1,1.9-0.4,2.9c-0.4,1.4-1.1,2.5-2,3.4
				s-2,1.5-3.2,1.8s-2.5,0.3-3.8-0.1s-2.4-1.1-3.2-2c-0.9-0.9-1.4-2-1.7-3.3c-0.3-1.3-0.2-2.6,0.2-4c0.3-1.1,0.8-2,1.4-2.8
				s1.4-1.4,2.2-1.8l0.8,1.5c-1.4,0.8-2.3,1.9-2.7,3.4c-0.3,1-0.4,2-0.2,2.9c0.2,0.9,0.6,1.8,1.3,2.5c0.6,0.7,1.5,1.2,2.4,1.5
				c1,0.3,1.9,0.3,2.8,0.1c0.9-0.2,1.7-0.7,2.4-1.3c0.7-0.7,1.2-1.5,1.5-2.5c0.4-1.2,0.4-2.3,0.1-3.4L34.3,110.4z"/>
			<path class="st1" d="M39.2,87.1l-2.4,4.2l-1.5-0.9l5.8-10l1.5,0.9l-2.4,4.2l10.6,6.1l-1,1.7L39.2,87.1z"/>
			<path class="st1" d="M57.3,80.4c-1.2,0.5-2.4,0.6-3.7,0.5c-1.3-0.2-2.4-0.7-3.5-1.5c-1-0.8-1.8-1.9-2.2-3.1s-0.6-2.4-0.3-3.7
				c0.2-1.3,0.8-2.5,1.7-3.6s1.9-1.9,3.1-2.4s2.4-0.6,3.7-0.5c1.2,0.2,2.4,0.7,3.5,1.6s1.8,1.9,2.3,3c0.4,1.2,0.6,2.4,0.3,3.7
				c-0.2,1.3-0.8,2.5-1.7,3.5C59.5,79.1,58.5,79.9,57.3,80.4z M60.2,74.3c0.2-0.9,0.1-1.8-0.3-2.7c-0.3-0.9-0.9-1.6-1.7-2.3
				c-0.8-0.6-1.7-1-2.6-1.2s-1.8,0-2.7,0.3s-1.6,0.9-2.3,1.7s-1,1.7-1.2,2.6s-0.1,1.9,0.3,2.7c0.3,0.9,0.9,1.6,1.7,2.3
				c0.8,0.6,1.7,1,2.6,1.2s1.8,0,2.7-0.3s1.7-0.9,2.3-1.7C59.7,76.1,60.1,75.2,60.2,74.3z"/>
			<path class="st1" d="M77.8,59.3c-1.3,0.2-2.5,0-3.7-0.4c-1.2-0.5-2.2-1.3-3-2.3c-0.8-1.1-1.3-2.2-1.5-3.5c-0.1-1.3,0-2.5,0.6-3.6
				c0.5-1.2,1.3-2.2,2.5-3c0.9-0.7,1.8-1.1,2.7-1.4s1.9-0.3,2.8-0.1L78,46.7c-1.5-0.2-2.9,0.1-4.1,1.1c-0.8,0.6-1.4,1.4-1.8,2.3
				c-0.4,0.9-0.5,1.8-0.4,2.7s0.5,1.8,1.1,2.6s1.4,1.4,2.2,1.8c0.9,0.4,1.8,0.5,2.7,0.3c1-0.1,1.8-0.5,2.7-1.2
				c1.2-0.9,1.9-2.2,2.1-3.7l1.8,0.2c-0.1,1-0.4,1.9-0.9,2.7c-0.5,0.9-1.2,1.6-2.1,2.3C80.3,58.6,79.1,59.1,77.8,59.3z"/>
			<path class="st1" d="M92.5,49.3c-1.3,0-2.5-0.4-3.6-1c-1.1-0.7-1.9-1.6-2.6-2.8c-0.6-1.2-0.9-2.4-0.9-3.7
				c0.1-1.3,0.4-2.4,1.2-3.5c0.7-1.1,1.7-1.9,2.9-2.6c1.2-0.7,2.5-1,3.8-1s2.5,0.4,3.5,1s1.9,1.6,2.6,2.8s0.9,2.4,0.9,3.7
				c-0.1,1.3-0.4,2.4-1.2,3.5c-0.7,1.1-1.7,1.9-2.9,2.6C95.1,49,93.8,49.3,92.5,49.3z M97.6,44.9c0.5-0.8,0.8-1.7,0.8-2.6
				c0-0.9-0.2-1.9-0.7-2.8s-1.1-1.6-1.9-2.1s-1.7-0.8-2.6-0.8s-1.9,0.2-2.8,0.7s-1.6,1.1-2.1,1.9c-0.5,0.8-0.8,1.7-0.8,2.6
				c0,0.9,0.2,1.9,0.7,2.8c0.5,0.9,1.1,1.6,1.9,2.1s1.7,0.8,2.6,0.8s1.9-0.2,2.8-0.7S97.1,45.7,97.6,44.9z"/>
			<path class="st1" d="M116,25.3l4.3,13.3l-1.6,0.5l-11.2-7.3l3.2,9.9l-1.9,0.6L104.5,29l1.6-0.5l11.2,7.4l-3.2-9.9L116,25.3z"/>
			<path class="st1" d="M128.6,24.5l-4.7,0.8l-0.3-1.7l11.4-1.8l0.3,1.7l-4.7,0.8l2,12.1l-2,0.3L128.6,24.5z"/>
			<path class="st1" d="M151.1,31.4l-7.4,0.2l-1.5,3.5h-2.1l6-14.1h2l6.7,13.9h-2.1L151.1,31.4z M150.3,29.8l-3.2-6.8l-2.9,6.9
				L150.3,29.8z"/>
			<path class="st1" d="M162.7,34.8c-1-0.8-1.8-1.7-2.3-2.9s-0.6-2.4-0.5-3.8c0.2-1.3,0.7-2.5,1.4-3.5s1.8-1.7,3-2.2
				s2.5-0.6,3.9-0.4c1.1,0.1,2,0.5,2.9,0.9c0.8,0.5,1.5,1.1,2.1,1.9l-1.5,1.1c-0.9-1.2-2.1-2-3.7-2.2c-1-0.1-2,0-2.9,0.3
				c-0.9,0.4-1.6,0.9-2.2,1.7c-0.6,0.8-0.9,1.6-1.1,2.6s0,1.9,0.3,2.8s0.9,1.6,1.7,2.2s1.7,0.9,2.7,1.1c1.5,0.2,2.9-0.2,4.1-1.1
				l1.1,1.4c-0.7,0.6-1.6,1.1-2.5,1.3c-1,0.2-2,0.3-3.1,0.2C165,36.1,163.7,35.6,162.7,34.8z"/>
			<path class="st1" d="M183.7,27.2l-4.6-1.3l0.5-1.7l11.1,3.1l-0.5,1.7l-4.6-1.3l-3.3,11.8l-1.9-0.5L183.7,27.2z"/>
			<path class="st1" d="M191.1,42.2c-0.2-0.3-0.2-0.7,0-1.1c0.1-0.4,0.4-0.6,0.7-0.8s0.7-0.2,1,0s0.6,0.4,0.7,0.7s0.1,0.7,0,1.1
				c-0.1,0.4-0.4,0.6-0.7,0.8c-0.3,0.1-0.7,0.2-1,0C191.6,42.8,191.3,42.6,191.1,42.2z"/>
		</g>
	</g>
</g>
</svg>
