<?xml version="1.0" encoding="utf-8"?>
<!-- Generator: Adobe Illustrator 27.9.0, SVG Export Plug-In . SVG Version: 6.00 Build 0)  -->
<svg version="1.1" id="Layer_1" xmlns="http://www.w3.org/2000/svg" xmlns:xlink="http://www.w3.org/1999/xlink" x="0px" y="0px"
	 viewBox="0 0 300 300" style="enable-background:new 0 0 300 300;" xml:space="preserve">
<style type="text/css">
	.st0{fill:#445335;}
</style>
<g>
	<path class="st0" d="M150,27c40.1,0,44.8,0.2,60.6,0.9c14.6,0.7,22.6,3.1,27.9,5.2c7,2.7,12,6,17.2,11.2s8.5,10.2,11.2,17.2
		c2.1,5.3,4.5,13.2,5.2,27.9c0.7,15.8,0.9,20.6,0.9,60.6s-0.2,44.8-0.9,60.6c-0.7,14.6-3.1,22.6-5.2,27.9c-2.7,7-6,12-11.2,17.2
		s-10.2,8.5-17.2,11.2c-5.3,2.1-13.2,4.5-27.9,5.2c-15.8,0.7-20.6,0.9-60.6,0.9s-44.8-0.2-60.6-0.9c-14.6-0.7-22.6-3.1-27.9-5.2
		c-7-2.7-12-6-17.2-11.2s-8.5-10.2-11.2-17.2c-2.1-5.3-4.5-13.2-5.2-27.9C27.2,194.8,27,190.1,27,150s0.2-44.8,0.9-60.6
		c0.7-14.6,3.1-22.6,5.2-27.9c2.7-7,6-12,11.2-17.2s10.2-8.5,17.2-11.2c5.3-2.1,13.2-4.5,27.9-5.2C105.2,27.2,109.9,27,150,27
		 M150,0c-40.7,0-45.8,0.2-61.8,0.9s-26.9,3.3-36.4,7c-9.9,3.8-18.2,9-26.6,17.3S11.7,41.9,7.9,51.7c-3.7,9.5-6.2,20.4-7,36.4
		C0.2,104.2,0,109.3,0,150s0.2,45.8,0.9,61.8s3.3,26.9,7,36.4c3.8,9.9,9,18.2,17.3,26.6c8.3,8.3,16.7,13.5,26.6,17.3
		c9.5,3.7,20.4,6.2,36.4,7c16,0.7,21.1,0.9,61.8,0.9s45.8-0.2,61.8-0.9c16-0.7,26.9-3.3,36.4-7c9.9-3.8,18.2-9,26.6-17.3
		c8.3-8.3,13.5-16.7,17.3-26.6c3.7-9.5,6.2-20.4,7-36.4c0.7-16,0.9-21.1,0.9-61.8s-0.2-45.8-0.9-61.8c-0.7-16-3.3-26.9-7-36.4
		c-3.8-9.9-9-18.2-17.3-26.6s-16.7-13.5-26.6-17.3c-9.5-3.7-20.4-6.2-36.4-7C195.8,0.2,190.7,0,150,0z M150,73
		c-42.5,0-77,34.5-77,77s34.5,77,77,77s77-34.5,77-77S192.5,73,150,73z M150,200c-27.6,0-50-22.4-50-50s22.4-50,50-50s50,22.4,50,50
		S177.6,200,150,200z M248.1,69.9c0,9.9-8.1,18-18,18s-18-8.1-18-18s8.1-18,18-18S248.1,60,248.1,69.9z"/>
</g>
</svg>
