<?xml version="1.0" encoding="utf-8"?>
<!-- Generator: Adobe Illustrator 27.9.0, SVG Export Plug-In . SVG Version: 6.00 Build 0)  -->
<svg version="1.1" id="Layer_1" xmlns="http://www.w3.org/2000/svg" xmlns:xlink="http://www.w3.org/1999/xlink" x="0px" y="0px"
	 viewBox="0 0 300 300" style="enable-background:new 0 0 300 300;" xml:space="preserve">
<style type="text/css">
	.st0{fill:#445335;}
</style>
<path class="st0" d="M293.7,77.4c-3.4-13-13.6-23.2-26.6-26.8C243.8,44.3,150,44.3,150,44.3s-93.7,0-117.3,6.3
	c-13,3.4-23,13.6-26.6,26.8C0,100.9,0,150,0,150s0,49.1,6.3,72.6c3.4,13,13.6,23.2,26.6,26.8c23.4,6.3,117.1,6.3,117.1,6.3
	s93.7,0,117.3-6.3c13-3.4,23-13.6,26.6-26.8C300,199.1,300,150,300,150S300,100.9,293.7,77.4z M119.3,194.7v-89.3l78.4,44.7
	L119.3,194.7z"/>
</svg>
